<svg width="548" height="353" viewBox="0 0 548 353" fill="none" xmlns="http://www.w3.org/2000/svg">
<rect width="548" height="353" fill="white"/>
<path d="M223 176C223 202.51 201.51 224 175 224C148.49 224 127 202.51 127 176C127 149.49 148.49 128 175 128C201.51 128 223 149.49 223 176Z" fill="url(#paint0_linear_46_14)"/>
<path d="M292.875 201.283L291.166 211H256.449L258.158 201.283H292.875ZM272.221 139.906L259.867 211H247.855L260.209 139.906H272.221ZM320.658 158.168L311.479 211H300.004L309.184 158.168H320.658ZM310.795 144.496C310.762 142.608 311.381 141.062 312.65 139.857C313.92 138.653 315.482 138.035 317.338 138.002C319.128 137.969 320.658 138.523 321.928 139.662C323.23 140.769 323.881 142.25 323.881 144.105C323.913 145.993 323.279 147.523 321.977 148.695C320.707 149.867 319.161 150.469 317.338 150.502C315.548 150.535 314.018 150.014 312.748 148.939C311.479 147.833 310.827 146.352 310.795 144.496ZM349.223 136L336.186 211H324.711L337.699 136H349.223ZM373.93 136L360.893 211H349.418L362.406 136H373.93ZM389.311 204.652L411.088 158.168H423.783L392.826 219.105C391.947 220.928 390.938 222.654 389.799 224.281C388.692 225.909 387.423 227.341 385.99 228.578C384.558 229.815 382.947 230.775 381.156 231.459C379.398 232.175 377.413 232.533 375.199 232.533C374.19 232.501 373.197 232.387 372.221 232.191C371.212 232.029 370.219 231.833 369.242 231.605L370.072 222.572C370.43 222.605 370.788 222.637 371.146 222.67C371.505 222.735 371.863 222.768 372.221 222.768C374.076 222.833 375.704 222.589 377.104 222.035C378.503 221.514 379.724 220.701 380.766 219.594C381.84 218.487 382.784 217.136 383.598 215.541L389.311 204.652ZM389.408 158.168L394.779 198.305L394.682 210.316L386.674 212.367L377.396 158.168H389.408Z" fill="black"/>
<defs>
<linearGradient id="paint0_linear_46_14" x1="127" y1="64.8" x2="223" y2="265.6" gradientUnits="userSpaceOnUse">
<stop/>
<stop offset="1" stop-opacity="0.26"/>
</linearGradient>
</defs>
</svg>
